<mxfile host="app.diagrams.net" modified="2024-07-10T21:29:20.499Z" agent="Mozilla/5.0 (Windows NT 10.0; Win64; x64; rv:127.0) Gecko/20100101 Firefox/127.0" etag="oYrZbOrKz4Mk1r0Ruhxm" version="24.6.4" type="device">
  <diagram name="Page-1" id="2YBvvXClWsGukQMizWep">
    <mxGraphModel dx="2924" dy="1106" grid="1" gridSize="10" guides="1" tooltips="1" connect="1" arrows="1" fold="1" page="1" pageScale="1" pageWidth="850" pageHeight="1100" math="0" shadow="0">
      <root>
        <mxCell id="0" />
        <mxCell id="1" parent="0" />
        <mxCell id="aM9ryv3xv72pqoxQDRHE-1" value="USER" style="shape=umlLifeline;perimeter=lifelinePerimeter;whiteSpace=wrap;html=1;container=0;dropTarget=0;collapsible=0;recursiveResize=0;outlineConnect=0;portConstraint=eastwest;newEdgeStyle={&quot;edgeStyle&quot;:&quot;elbowEdgeStyle&quot;,&quot;elbow&quot;:&quot;vertical&quot;,&quot;curved&quot;:0,&quot;rounded&quot;:0};" parent="1" vertex="1">
          <mxGeometry x="50" y="40" width="100" height="630" as="geometry" />
        </mxCell>
        <mxCell id="aM9ryv3xv72pqoxQDRHE-2" value="" style="html=1;points=[];perimeter=orthogonalPerimeter;outlineConnect=0;targetShapes=umlLifeline;portConstraint=eastwest;newEdgeStyle={&quot;edgeStyle&quot;:&quot;elbowEdgeStyle&quot;,&quot;elbow&quot;:&quot;vertical&quot;,&quot;curved&quot;:0,&quot;rounded&quot;:0};" parent="aM9ryv3xv72pqoxQDRHE-1" vertex="1">
          <mxGeometry x="45" y="70" width="10" height="520" as="geometry" />
        </mxCell>
        <mxCell id="aM9ryv3xv72pqoxQDRHE-5" value="Fetch API" style="shape=umlLifeline;perimeter=lifelinePerimeter;whiteSpace=wrap;html=1;container=0;dropTarget=0;collapsible=0;recursiveResize=0;outlineConnect=0;portConstraint=eastwest;newEdgeStyle={&quot;edgeStyle&quot;:&quot;elbowEdgeStyle&quot;,&quot;elbow&quot;:&quot;vertical&quot;,&quot;curved&quot;:0,&quot;rounded&quot;:0};" parent="1" vertex="1">
          <mxGeometry x="280" y="30" width="100" height="590" as="geometry" />
        </mxCell>
        <mxCell id="aM9ryv3xv72pqoxQDRHE-6" value="" style="html=1;points=[];perimeter=orthogonalPerimeter;outlineConnect=0;targetShapes=umlLifeline;portConstraint=eastwest;newEdgeStyle={&quot;edgeStyle&quot;:&quot;elbowEdgeStyle&quot;,&quot;elbow&quot;:&quot;vertical&quot;,&quot;curved&quot;:0,&quot;rounded&quot;:0};" parent="aM9ryv3xv72pqoxQDRHE-5" vertex="1">
          <mxGeometry x="45" y="80" width="10" height="510" as="geometry" />
        </mxCell>
        <mxCell id="aM9ryv3xv72pqoxQDRHE-7" value="Submits input data for new album" style="html=1;verticalAlign=bottom;endArrow=block;edgeStyle=elbowEdgeStyle;elbow=vertical;curved=0;rounded=0;" parent="1" source="aM9ryv3xv72pqoxQDRHE-2" target="aM9ryv3xv72pqoxQDRHE-6" edge="1">
          <mxGeometry relative="1" as="geometry">
            <mxPoint x="195" y="130" as="sourcePoint" />
            <Array as="points">
              <mxPoint x="180" y="120" />
            </Array>
          </mxGeometry>
        </mxCell>
        <mxCell id="aM9ryv3xv72pqoxQDRHE-8" value="Show saved album" style="html=1;verticalAlign=bottom;endArrow=open;dashed=1;endSize=8;edgeStyle=elbowEdgeStyle;elbow=vertical;curved=0;rounded=0;" parent="1" source="aM9ryv3xv72pqoxQDRHE-6" target="aM9ryv3xv72pqoxQDRHE-2" edge="1">
          <mxGeometry relative="1" as="geometry">
            <mxPoint x="195" y="205" as="targetPoint" />
            <Array as="points">
              <mxPoint x="190" y="280" />
            </Array>
          </mxGeometry>
        </mxCell>
        <mxCell id="yPbxAwSrSoSEzMs2KVjj-8" value="" style="edgeStyle=elbowEdgeStyle;rounded=0;orthogonalLoop=1;jettySize=auto;html=1;elbow=vertical;curved=0;dashed=1;" parent="1" source="yPbxAwSrSoSEzMs2KVjj-9" target="aM9ryv3xv72pqoxQDRHE-5" edge="1">
          <mxGeometry relative="1" as="geometry">
            <Array as="points">
              <mxPoint x="490" y="210" />
              <mxPoint x="510" y="195" />
            </Array>
          </mxGeometry>
        </mxCell>
        <mxCell id="yPbxAwSrSoSEzMs2KVjj-14" value="Return saved album in JSON " style="edgeLabel;html=1;align=center;verticalAlign=middle;resizable=0;points=[];" parent="yPbxAwSrSoSEzMs2KVjj-8" vertex="1" connectable="0">
          <mxGeometry x="0.0964" relative="1" as="geometry">
            <mxPoint as="offset" />
          </mxGeometry>
        </mxCell>
        <mxCell id="yPbxAwSrSoSEzMs2KVjj-7" value="" style="edgeStyle=elbowEdgeStyle;rounded=0;orthogonalLoop=1;jettySize=auto;html=1;elbow=vertical;curved=0;" parent="1" source="aM9ryv3xv72pqoxQDRHE-6" target="yPbxAwSrSoSEzMs2KVjj-9" edge="1">
          <mxGeometry relative="1" as="geometry">
            <Array as="points">
              <mxPoint x="490" y="160" />
            </Array>
          </mxGeometry>
        </mxCell>
        <mxCell id="yPbxAwSrSoSEzMs2KVjj-13" value="Does POST with JSON data" style="edgeLabel;html=1;align=center;verticalAlign=middle;resizable=0;points=[];" parent="yPbxAwSrSoSEzMs2KVjj-7" vertex="1" connectable="0">
          <mxGeometry x="-0.1913" y="-1" relative="1" as="geometry">
            <mxPoint as="offset" />
          </mxGeometry>
        </mxCell>
        <mxCell id="yPbxAwSrSoSEzMs2KVjj-9" value="API" style="shape=umlLifeline;perimeter=lifelinePerimeter;whiteSpace=wrap;html=1;container=0;dropTarget=0;collapsible=0;recursiveResize=0;outlineConnect=0;portConstraint=eastwest;newEdgeStyle={&quot;edgeStyle&quot;:&quot;elbowEdgeStyle&quot;,&quot;elbow&quot;:&quot;vertical&quot;,&quot;curved&quot;:0,&quot;rounded&quot;:0};" parent="1" vertex="1">
          <mxGeometry x="560" y="30" width="100" height="590" as="geometry" />
        </mxCell>
        <mxCell id="yPbxAwSrSoSEzMs2KVjj-10" value="" style="html=1;points=[];perimeter=orthogonalPerimeter;outlineConnect=0;targetShapes=umlLifeline;portConstraint=eastwest;newEdgeStyle={&quot;edgeStyle&quot;:&quot;elbowEdgeStyle&quot;,&quot;elbow&quot;:&quot;vertical&quot;,&quot;curved&quot;:0,&quot;rounded&quot;:0};" parent="yPbxAwSrSoSEzMs2KVjj-9" vertex="1">
          <mxGeometry x="45" y="80" width="10" height="510" as="geometry" />
        </mxCell>
        <mxCell id="yPbxAwSrSoSEzMs2KVjj-16" value="" style="edgeStyle=elbowEdgeStyle;rounded=0;orthogonalLoop=1;jettySize=auto;html=1;elbow=vertical;curved=0;" parent="yPbxAwSrSoSEzMs2KVjj-9" edge="1">
          <mxGeometry relative="1" as="geometry">
            <mxPoint x="60.5" y="190" as="sourcePoint" />
            <mxPoint x="55" y="190" as="targetPoint" />
            <Array as="points">
              <mxPoint x="125.5" y="190" />
            </Array>
          </mxGeometry>
        </mxCell>
        <mxCell id="yPbxAwSrSoSEzMs2KVjj-17" value="" style="edgeStyle=elbowEdgeStyle;rounded=0;orthogonalLoop=1;jettySize=auto;html=1;elbow=vertical;curved=0;" parent="1" source="yPbxAwSrSoSEzMs2KVjj-9" edge="1">
          <mxGeometry relative="1" as="geometry">
            <mxPoint x="645.5" y="170" as="sourcePoint" />
            <mxPoint x="690" y="220" as="targetPoint" />
            <Array as="points">
              <mxPoint x="710.5" y="170" />
            </Array>
          </mxGeometry>
        </mxCell>
        <mxCell id="yPbxAwSrSoSEzMs2KVjj-18" value="Saves album to DB" style="edgeLabel;html=1;align=center;verticalAlign=middle;resizable=0;points=[];" parent="yPbxAwSrSoSEzMs2KVjj-17" vertex="1" connectable="0">
          <mxGeometry x="0.4943" y="2" relative="1" as="geometry">
            <mxPoint as="offset" />
          </mxGeometry>
        </mxCell>
        <mxCell id="yPbxAwSrSoSEzMs2KVjj-21" value="" style="edgeStyle=elbowEdgeStyle;rounded=0;orthogonalLoop=1;jettySize=auto;html=1;elbow=vertical;curved=0;" parent="1" source="aM9ryv3xv72pqoxQDRHE-6" target="yPbxAwSrSoSEzMs2KVjj-10" edge="1">
          <mxGeometry relative="1" as="geometry">
            <mxPoint x="415" y="275" as="targetPoint" />
            <Array as="points">
              <mxPoint x="470" y="340" />
            </Array>
          </mxGeometry>
        </mxCell>
        <mxCell id="yPbxAwSrSoSEzMs2KVjj-22" value="Does POST in plain" style="edgeLabel;html=1;align=center;verticalAlign=middle;resizable=0;points=[];" parent="yPbxAwSrSoSEzMs2KVjj-21" vertex="1" connectable="0">
          <mxGeometry x="0.2148" y="4" relative="1" as="geometry">
            <mxPoint as="offset" />
          </mxGeometry>
        </mxCell>
        <mxCell id="yPbxAwSrSoSEzMs2KVjj-23" value="" style="edgeStyle=elbowEdgeStyle;rounded=0;orthogonalLoop=1;jettySize=auto;html=1;elbow=vertical;curved=0;" parent="1" edge="1" target="yPbxAwSrSoSEzMs2KVjj-9">
          <mxGeometry relative="1" as="geometry">
            <mxPoint x="690" y="560" as="sourcePoint" />
            <mxPoint x="630" y="600" as="targetPoint" />
            <Array as="points">
              <mxPoint x="700.5" y="600" />
            </Array>
          </mxGeometry>
        </mxCell>
        <mxCell id="yPbxAwSrSoSEzMs2KVjj-24" value="" style="edgeStyle=elbowEdgeStyle;rounded=0;orthogonalLoop=1;jettySize=auto;html=1;elbow=vertical;curved=0;" parent="1" edge="1">
          <mxGeometry relative="1" as="geometry">
            <mxPoint x="610" y="330" as="sourcePoint" />
            <mxPoint x="690" y="570" as="targetPoint" />
            <Array as="points">
              <mxPoint x="710.5" y="330" />
            </Array>
          </mxGeometry>
        </mxCell>
        <mxCell id="yPbxAwSrSoSEzMs2KVjj-25" value="&lt;div&gt;Wrong input type&lt;/div&gt;" style="edgeLabel;html=1;align=center;verticalAlign=middle;resizable=0;points=[];" parent="yPbxAwSrSoSEzMs2KVjj-24" vertex="1" connectable="0">
          <mxGeometry x="0.4943" y="2" relative="1" as="geometry">
            <mxPoint as="offset" />
          </mxGeometry>
        </mxCell>
        <mxCell id="yPbxAwSrSoSEzMs2KVjj-26" value="" style="edgeStyle=elbowEdgeStyle;rounded=0;orthogonalLoop=1;jettySize=auto;html=1;elbow=vertical;curved=0;dashed=1;" parent="1" source="yPbxAwSrSoSEzMs2KVjj-10" target="aM9ryv3xv72pqoxQDRHE-5" edge="1">
          <mxGeometry relative="1" as="geometry">
            <mxPoint x="350" y="400" as="sourcePoint" />
            <mxPoint x="620" y="400" as="targetPoint" />
            <Array as="points">
              <mxPoint x="485" y="400" />
            </Array>
          </mxGeometry>
        </mxCell>
        <mxCell id="yPbxAwSrSoSEzMs2KVjj-27" value="Return HTTP status code 400" style="edgeLabel;html=1;align=center;verticalAlign=middle;resizable=0;points=[];" parent="yPbxAwSrSoSEzMs2KVjj-26" vertex="1" connectable="0">
          <mxGeometry x="0.2148" y="4" relative="1" as="geometry">
            <mxPoint x="52" as="offset" />
          </mxGeometry>
        </mxCell>
        <mxCell id="yPbxAwSrSoSEzMs2KVjj-30" value="" style="edgeStyle=elbowEdgeStyle;rounded=0;orthogonalLoop=1;jettySize=auto;html=1;elbow=vertical;curved=0;dashed=1;" parent="1" edge="1" target="aM9ryv3xv72pqoxQDRHE-2" source="aM9ryv3xv72pqoxQDRHE-5">
          <mxGeometry relative="1" as="geometry">
            <mxPoint x="329.5" y="410" as="sourcePoint" />
            <mxPoint x="99.5" y="410" as="targetPoint" />
            <Array as="points">
              <mxPoint x="210" y="560" />
            </Array>
          </mxGeometry>
        </mxCell>
        <mxCell id="yPbxAwSrSoSEzMs2KVjj-31" value="Display error message" style="edgeLabel;html=1;align=center;verticalAlign=middle;resizable=0;points=[];" parent="yPbxAwSrSoSEzMs2KVjj-30" vertex="1" connectable="0">
          <mxGeometry x="0.2148" y="4" relative="1" as="geometry">
            <mxPoint x="52" as="offset" />
          </mxGeometry>
        </mxCell>
        <mxCell id="yPbxAwSrSoSEzMs2KVjj-32" value="" style="edgeStyle=elbowEdgeStyle;rounded=0;orthogonalLoop=1;jettySize=auto;html=1;elbow=vertical;curved=0;dashed=1;" parent="1" edge="1">
          <mxGeometry relative="1" as="geometry">
            <mxPoint x="840" y="290" as="sourcePoint" />
            <mxPoint x="-20" y="300" as="targetPoint" />
            <Array as="points">
              <mxPoint x="465" y="300" />
            </Array>
          </mxGeometry>
        </mxCell>
        <mxCell id="yPbxAwSrSoSEzMs2KVjj-33" value="Faulty info" style="edgeLabel;html=1;align=center;verticalAlign=middle;resizable=0;points=[];" parent="yPbxAwSrSoSEzMs2KVjj-32" vertex="1" connectable="0">
          <mxGeometry x="0.2148" y="4" relative="1" as="geometry">
            <mxPoint x="-172" as="offset" />
          </mxGeometry>
        </mxCell>
        <mxCell id="nd7iLwG8LgdWXTnvvO9f-1" value="" style="edgeStyle=elbowEdgeStyle;rounded=0;orthogonalLoop=1;jettySize=auto;html=1;elbow=vertical;curved=0;" edge="1" parent="1">
          <mxGeometry relative="1" as="geometry">
            <mxPoint x="605" y="490" as="targetPoint" />
            <Array as="points">
              <mxPoint x="470" y="490" />
            </Array>
            <mxPoint x="335" y="490" as="sourcePoint" />
          </mxGeometry>
        </mxCell>
        <mxCell id="nd7iLwG8LgdWXTnvvO9f-2" value="Didn&#39;t fill in a required field" style="edgeLabel;html=1;align=center;verticalAlign=middle;resizable=0;points=[];" vertex="1" connectable="0" parent="nd7iLwG8LgdWXTnvvO9f-1">
          <mxGeometry x="0.2148" y="4" relative="1" as="geometry">
            <mxPoint as="offset" />
          </mxGeometry>
        </mxCell>
        <mxCell id="nd7iLwG8LgdWXTnvvO9f-3" value="" style="edgeStyle=elbowEdgeStyle;rounded=0;orthogonalLoop=1;jettySize=auto;html=1;elbow=vertical;curved=0;dashed=1;" edge="1" parent="1">
          <mxGeometry relative="1" as="geometry">
            <mxPoint x="605" y="549" as="sourcePoint" />
            <mxPoint x="330" y="549" as="targetPoint" />
            <Array as="points">
              <mxPoint x="485" y="549" />
            </Array>
          </mxGeometry>
        </mxCell>
        <mxCell id="nd7iLwG8LgdWXTnvvO9f-4" value="Return HTTP status code 400" style="edgeLabel;html=1;align=center;verticalAlign=middle;resizable=0;points=[];" vertex="1" connectable="0" parent="nd7iLwG8LgdWXTnvvO9f-3">
          <mxGeometry x="0.2148" y="4" relative="1" as="geometry">
            <mxPoint x="52" as="offset" />
          </mxGeometry>
        </mxCell>
      </root>
    </mxGraphModel>
  </diagram>
</mxfile>
